<mxfile host="app.diagrams.net" modified="2023-08-10T01:32:15.723Z" agent="Mozilla/5.0 (Windows NT 10.0; Win64; x64) AppleWebKit/537.36 (KHTML, like Gecko) Chrome/115.0.0.0 Safari/537.36" etag="kA4NyzbipnlNP5Xux5RS" version="21.6.7" type="device">
  <diagram name="Página-1" id="_yhINXb5g2yc5JU2wdhR">
    <mxGraphModel dx="928" dy="508" grid="1" gridSize="10" guides="1" tooltips="1" connect="1" arrows="1" fold="1" page="1" pageScale="1" pageWidth="827" pageHeight="1169" math="0" shadow="0">
      <root>
        <mxCell id="0" />
        <mxCell id="1" parent="0" />
        <mxCell id="jWkLKdTu9kQNpfmkgMv_-3" value="" style="edgeStyle=orthogonalEdgeStyle;rounded=0;orthogonalLoop=1;jettySize=auto;html=1;" edge="1" parent="1" source="jWkLKdTu9kQNpfmkgMv_-1" target="jWkLKdTu9kQNpfmkgMv_-2">
          <mxGeometry relative="1" as="geometry" />
        </mxCell>
        <mxCell id="jWkLKdTu9kQNpfmkgMv_-1" value="" style="ellipse;whiteSpace=wrap;html=1;aspect=fixed;fillColor=#009600;strokeColor=#006600;" vertex="1" parent="1">
          <mxGeometry x="130" y="110" width="60" height="60" as="geometry" />
        </mxCell>
        <mxCell id="jWkLKdTu9kQNpfmkgMv_-5" value="" style="edgeStyle=orthogonalEdgeStyle;rounded=0;orthogonalLoop=1;jettySize=auto;html=1;" edge="1" parent="1" source="jWkLKdTu9kQNpfmkgMv_-2" target="jWkLKdTu9kQNpfmkgMv_-4">
          <mxGeometry relative="1" as="geometry" />
        </mxCell>
        <mxCell id="jWkLKdTu9kQNpfmkgMv_-2" value="Receber primeira nota&amp;nbsp;&lt;br&gt;&lt;br&gt;[ nota1 ]" style="whiteSpace=wrap;html=1;rounded=1;sketch=1;curveFitting=1;jiggle=2;fontStyle=1;fontFamily=Helvetica;" vertex="1" parent="1">
          <mxGeometry x="250" y="100" width="120" height="80" as="geometry" />
        </mxCell>
        <mxCell id="jWkLKdTu9kQNpfmkgMv_-7" value="" style="edgeStyle=orthogonalEdgeStyle;rounded=0;orthogonalLoop=1;jettySize=auto;html=1;" edge="1" parent="1" source="jWkLKdTu9kQNpfmkgMv_-4" target="jWkLKdTu9kQNpfmkgMv_-6">
          <mxGeometry relative="1" as="geometry" />
        </mxCell>
        <mxCell id="jWkLKdTu9kQNpfmkgMv_-4" value="&lt;b&gt;Receber segunda nota&lt;br&gt;&lt;br&gt;[ nota2 ]&lt;/b&gt;" style="whiteSpace=wrap;html=1;rounded=1;sketch=1;curveFitting=1;jiggle=2;" vertex="1" parent="1">
          <mxGeometry x="450" y="100" width="120" height="80" as="geometry" />
        </mxCell>
        <mxCell id="jWkLKdTu9kQNpfmkgMv_-9" value="" style="edgeStyle=orthogonalEdgeStyle;rounded=0;orthogonalLoop=1;jettySize=auto;html=1;" edge="1" parent="1" source="jWkLKdTu9kQNpfmkgMv_-6" target="jWkLKdTu9kQNpfmkgMv_-8">
          <mxGeometry relative="1" as="geometry" />
        </mxCell>
        <mxCell id="jWkLKdTu9kQNpfmkgMv_-12" style="edgeStyle=orthogonalEdgeStyle;rounded=0;orthogonalLoop=1;jettySize=auto;html=1;exitX=1;exitY=0;exitDx=0;exitDy=0;" edge="1" parent="1" source="jWkLKdTu9kQNpfmkgMv_-6">
          <mxGeometry relative="1" as="geometry">
            <mxPoint x="560.3333333333335" y="250.33333333333337" as="targetPoint" />
          </mxGeometry>
        </mxCell>
        <mxCell id="jWkLKdTu9kQNpfmkgMv_-6" value="&lt;b&gt;Calcular a média das duas notas&amp;nbsp;&lt;br&gt;( nota1 + nota2) / 2&lt;br&gt;&lt;br&gt;[ media ]&lt;/b&gt;" style="whiteSpace=wrap;html=1;rounded=1;sketch=1;curveFitting=1;jiggle=2;" vertex="1" parent="1">
          <mxGeometry x="440" y="240" width="140" height="100" as="geometry" />
        </mxCell>
        <mxCell id="jWkLKdTu9kQNpfmkgMv_-11" value="" style="edgeStyle=orthogonalEdgeStyle;rounded=0;orthogonalLoop=1;jettySize=auto;html=1;" edge="1" parent="1" source="jWkLKdTu9kQNpfmkgMv_-8" target="jWkLKdTu9kQNpfmkgMv_-10">
          <mxGeometry relative="1" as="geometry" />
        </mxCell>
        <mxCell id="jWkLKdTu9kQNpfmkgMv_-8" value="&lt;b&gt;Exibir a média&amp;nbsp;&lt;/b&gt;" style="whiteSpace=wrap;html=1;rounded=1;sketch=1;curveFitting=1;jiggle=2;" vertex="1" parent="1">
          <mxGeometry x="240" y="260" width="120" height="60" as="geometry" />
        </mxCell>
        <mxCell id="jWkLKdTu9kQNpfmkgMv_-10" value="" style="ellipse;whiteSpace=wrap;html=1;fillColor=#F87B68;strokeColor=#b85450;gradientColor=none;" vertex="1" parent="1">
          <mxGeometry x="130" y="260" width="60" height="60" as="geometry" />
        </mxCell>
      </root>
    </mxGraphModel>
  </diagram>
</mxfile>
